<?xml version="1.0" encoding="UTF-8" standalone="no"?>
<svg
   preserveAspectRatio="xMidYMid meet"
   width="80"
   height="32"
   version="1.1" 
   xmlns="http://www.w3.org/2000/svg"
   xmlns:svg="http://www.w3.org/2000/svg">
  <style>
    #open-o {
	   fill:#f7b500;
    }
    #wayside {		
	   fill:#ffffff;
    }
  </style>
  <g id="open-o" aria-label="C" transform="scale(-1,1)">
    <path
       d="m -9.515625,12.671875 q 0.609375,-1.5625 1.03125,-3.5 0.4375,-1.953125 0.4375,-3.21875 0,-0.828125 -0.390625,-0.828125 -0.359375,0 -1.3125,0.953125 -1.421875,1.53125 -2.53125,3.53125 -1.109375,1.984375 -1.703125,4.0625 -0.59375,2.078125 -0.59375,4.0625 0,1.5625 0.328125,2.140625 0.34375,0.578125 1.28125,0.578125 0.8125,0 2.015625,-0.453125 2.71875,-1.078125 5.75,-3.078125 Q -3.859375,16.0625 -3.5,16.0625 q 0.515625,0 0.515625,0.515625 v 0.03125 q -0.078125,0.703125 -0.484375,1.59375 -0.8125,1.71875 -1.40625,2.25 -1,0.890625 -2.75,1.75 -1.734375,0.859375 -3.5625,1.40625 -1.828125,0.546875 -3.0625,0.546875 -1.421875,0 -2.6875,-0.53125 -1.265625,-0.546875 -2.203125,-1.484375 -0.9375,-0.9375 -1.46875,-2.1875 -0.53125,-1.25 -0.53125,-2.671875 0,-1.078125 0.34375,-2.328125 0.34375,-1.265625 1,-2.640625 0.65625,-1.375 1.484375,-2.578125 0.484375,-0.71875 1,-1.375 0.53125,-0.65625 1.15625,-1.28125 0.640625,-0.625 1.390625,-1.203125 0.75,-0.578125 1.375,-0.984375 1.09375,-0.734375 2.265625,-1.28125 1.171875,-0.546875 2.171875,-0.8125 1,-0.265625 1.828125,-0.265625 2.046875,0 3.203125,1.0625 1.15625,1.0625 1.15625,2.9375 0,1.96875 -0.96875,4.125 -0.96875,2.140625 -2.578125,3.75 -1.109375,1.140625 -2.203125,1.796875 -1.09375,0.65625 -1.96875,0.65625 -0.765625,0 -0.765625,-0.734375 0,-0.34375 0.421875,-0.953125 0.59375,-0.84375 1.3125,-2.5 z"/>
  </g>
  <g id="wayside" aria-label="Wayside">
    <path
       d="M 24.279297,24.246094 20.273437,5.296875 h 2.529297 l 2.214844,12.564453 h 0.05469 L 27.587891,5.296875 h 1.736328 l 2.378906,12.851562 h 0.05469 L 34.109375,5.296875 h 2.529297 l -4.00586,18.949219 H 30.978516 L 28.449219,11.736328 h -0.05469 l -2.460937,12.509766 z"
       id="wayside-w" />
    <path
       d="m 44.0875,21.703125 v 1.654297 q -1.025391,0.916015 -1.695313,0.916015 -1.216797,0 -1.599609,-1.558593 -1.203125,1.626953 -2.378907,1.626953 -0.970703,0 -1.708984,-0.929688 -0.724609,-0.943359 -0.724609,-2.214843 0,-1.462891 1.02539,-2.488282 1.025391,-1.02539 3.705078,-2.570312 v -1.189453 q 0,-1.613281 -1.298828,-1.613281 -1.326172,0 -3.130859,2.037109 v -2.515625 q 1.667969,-1.599609 3.308594,-1.599609 1.367187,0 2.324218,0.902343 0.970704,0.902344 0.970704,2.433594 v 7 q 0,0.724609 0.341796,0.724609 0.205079,0 0.861329,-0.615234 z m -3.376954,-0.861328 v -3.199219 q -2.583984,1.558594 -2.583984,3.226563 0,0.615234 0.300781,1.011718 0.300782,0.382813 0.765625,0.382813 0.574219,0 1.039063,-0.615235 0.478515,-0.628906 0.478515,-0.80664 z"
       id="wayside-a" />
    <path
       d="M 43.839062,30.835937 46.354687,21.8125 43.073437,11.599609 h 2.269531 l 2.023437,6.466797 h 0.05469 l 1.791016,-6.466797 h 2.1875 L 46.01289,30.835937 Z"
       id="wayside-y" />
    <path
       d="m 51.547657,23.330078 v -2.40625 q 1.216797,1.339844 2.160156,1.339844 0.464844,0 0.779297,-0.300781 0.314453,-0.300782 0.314453,-0.765625 0,-0.847657 -1.24414,-2.69336 -1.230469,-1.845703 -1.544922,-2.720703 -0.314453,-0.888672 -0.314453,-1.613281 0,-1.257813 0.751953,-2.078125 0.765625,-0.833984 1.927734,-0.833984 1.052735,0 2.078125,0.792968 v 2.064453 q -1.066406,-0.861328 -1.873047,-0.861328 -0.875,0 -0.875,0.916016 0,0.779297 1.271485,2.570312 1.285156,1.777344 1.626953,2.707032 0.355469,0.916015 0.355469,1.695312 0,1.380859 -0.847657,2.296875 -0.847656,0.902344 -2.11914,0.902344 -1.203125,0 -2.447266,-1.011719 z"
       id="wayside-s" />
    <path
       d="m 59.406639,7.5664062 q -0.519531,0 -0.888672,-0.3691406 -0.36914,-0.3691406 -0.36914,-0.8886719 0,-0.5332031 0.36914,-0.8886718 0.369141,-0.3691407 0.888672,-0.3691407 0.519531,0 0.888672,0.3691407 0.369141,0.3554687 0.369141,0.8886718 0,0.5195313 -0.369141,0.8886719 -0.369141,0.3691406 -0.888672,0.3691406 z M 58.312889,24 V 11.599609 h 2.1875 V 24 Z"
       id="wayside-i" />
    <path
       d="m 69.644531,24 h -2.1875 v -0.957031 h -0.05469 q -0.779297,1.148437 -1.982422,1.148437 -1.462891,0 -2.488281,-1.722656 -1.011719,-1.722656 -1.011719,-4.634766 0,-2.925781 1.011719,-4.74414 1.011718,-1.832031 2.597656,-1.832031 1.107422,0 1.927734,1.011718 V 5.296875 h 2.1875 z m -2.1875,-3.158203 v -6.275391 q -0.4375,-1.230468 -1.421875,-1.230468 -0.875,0 -1.380859,1.203125 -0.50586,1.189453 -0.50586,3.363281 0,4.115234 1.763672,4.115234 0.65625,0 1.09375,-0.519531 0.451172,-0.519531 0.451172,-0.65625 z"
       id="wayside-d" />
    <path
       d="m 77.558205,21.087891 v 2.160156 q -1.16211,1.09375 -2.556641,1.09375 -1.886719,0 -2.925781,-1.695313 -1.039063,-1.695312 -1.039063,-4.867187 0,-3.089844 0.902344,-4.798828 0.916016,-1.722656 2.542969,-1.722656 3.390625,0 3.322265,7.027343 h -4.59375 q 0,4.033203 2.214844,4.033203 1.203125,0 2.132813,-1.230468 z m -4.375,-4.429688 h 2.447265 q 0,-3.5 -1.271484,-3.5 -1.175781,0 -1.175781,3.5 z"
       id="wayside-e" />
  </g>
</svg>
